<?xml version="1.0" encoding="utf-8"?>
<!-- Generator: Adobe Illustrator 16.0.0, SVG Export Plug-In . SVG Version: 6.00 Build 0)  -->
<!DOCTYPE svg PUBLIC "-//W3C//DTD SVG 1.1//EN" "http://www.w3.org/Graphics/SVG/1.1/DTD/svg11.dtd">
<svg version="1.1" id="图层_1" xmlns="http://www.w3.org/2000/svg" xmlns:xlink="http://www.w3.org/1999/xlink" x="0px" y="0px"
	 width="146px" height="38px" viewBox="0 0 146 38" enable-background="new 0 0 146 38" xml:space="preserve">
<title>Shape Copy</title>
<desc>Created with Sketch.</desc>
<g>
	<path fill="#19499D" d="M18.378,28.359V10.005h5.547l3.331,12.521l3.293-12.521h5.56v18.354h-3.444V13.913l-3.644,14.446h-3.569
		l-3.631-14.446v14.446H18.378z"/>
	<path fill="#19499D" d="M40.499,28.359V10.005h3.707v18.354H40.499z"/>
	<path fill="#19499D" d="M48.595,28.359V10.005h3.606l7.513,12.257V10.005h3.444v18.354h-3.719l-7.4-11.968v11.968H48.595z"/>
	<path fill="#19499D" d="M67.785,28.359V10.005h3.707v18.354H67.785z"/>
	<path fill="#19499D" d="M84.391,21.611V18.52h7.963v7.312c-0.775,0.75-1.9,1.412-3.369,1.982c-1.469,0.571-2.953,0.857-4.457,0.857
		c-1.918,0-3.592-0.402-5.02-1.209s-2.5-1.957-3.219-3.457c-0.717-1.498-1.076-3.127-1.076-4.886c0-1.912,0.4-3.611,1.201-5.097
		c0.803-1.486,1.975-2.625,3.52-3.418c1.178-0.609,2.644-0.914,4.396-0.914c2.268,0,4.04,0.478,5.314,1.434
		c1.278,0.956,2.104,2.277,2.472,3.963l-3.675,0.688c-0.258-0.901-0.74-1.613-1.451-2.135s-1.596-0.783-2.66-0.783
		c-1.619,0-2.907,0.513-3.862,1.54c-0.956,1.027-1.434,2.551-1.434,4.571c0,2.178,0.483,3.812,1.452,4.901
		c0.968,1.09,2.236,1.633,3.809,1.633c0.771,0,1.547-0.149,2.324-0.457c0.775-0.305,1.441-0.674,2-1.104v-2.33H84.391L84.391,21.611
		z"/>
	<path fill="#19499D" d="M96.566,10.005h3.707v9.94c0,1.578,0.045,2.602,0.139,3.068c0.158,0.75,0.535,1.354,1.133,1.81
		s1.413,0.683,2.448,0.683c1.052,0,1.845-0.215,2.379-0.646c0.534-0.43,0.854-0.957,0.965-1.584
		c0.108-0.625,0.162-1.664,0.162-3.116V10.005h3.707v9.642c0,2.201-0.101,3.761-0.302,4.668c-0.199,0.91-0.568,1.68-1.107,2.308
		c-0.538,0.625-1.259,1.125-2.16,1.495c-0.9,0.369-2.078,0.558-3.531,0.558c-1.752,0-3.082-0.2-3.985-0.604
		c-0.905-0.405-1.621-0.932-2.146-1.578c-0.525-0.646-0.871-1.325-1.039-2.034c-0.242-1.054-0.363-2.604-0.363-4.658v-9.792
		L96.566,10.005L96.566,10.005z"/>
	<path fill="#19499D" d="M115.82,28.359V10.005h3.707v18.354H115.82z"/>
</g>
</svg>
